<svg width="32" height="32" fill="none" xmlns="http://www.w3.org/2000/svg"><path d="M16.6 14.5c.4 0 .7 0 1-.2.3 0 .5-.3.6-.6l.2-.8c0-.2 0-.4-.2-.7a1 1 0 00-.6-.5 3 3 0 00-1-.1h-2v3h.6l1.4-.1zM18.1 17h-3.5v3.5h2.5c.4 0 .8 0 1.2-.3.3 0 .6-.3.7-.6.2-.2.3-.6.3-.9 0-.3-.1-.7-.3-1-.2-.3-.5-.5-.9-.6z" fill="#fff" fill-opacity=".8"/><path d="M16 0a16 16 0 100 32 16 16 0 000-32zm6.6 20.5c-.3.6-.6 1-1.1 1.4-.6.4-1.2.7-1.9.8-.8.2-1.6.3-2.5.3H11V9h5.4l2.5.1c.6 0 1.1.3 1.6.5s.9.6 1.2 1.1c.2.5.4 1 .4 1.6a3 3 0 01-.6 1.8c-.4.5-.9.9-1.5 1.2a4 4 0 012.2 1.1c.5.7.8 1.5.8 2.3 0 .6-.1 1.3-.4 1.8z" fill="#fff" fill-opacity=".8"/></svg>