<svg width="80" height="140" fill="none" xmlns="http://www.w3.org/2000/svg"><path d="M40.1 7A28.8 28.8 0 0165 21.1a28.1 28.1 0 010 28.3 9.4 9.4 0 017.6 6.3 9.2 9.2 0 01-6.7 12 9.5 9.5 0 01-9.4-3.1 9.3 9.3 0 01-2-4.7l-1.2.6a13.1 13.1 0 01-13 11 13.3 13.3 0 01-13.2-11l-1-.6a9.3 9.3 0 01-6.4 7.6 9.5 9.5 0 01-12-6.8 9.2 9.2 0 013-9.2c1.4-1.1 3-1.9 4.8-2a28.1 28.1 0 0110.5-38.7C30.2 8.3 35 7 40 7zm0-7A35.9 35.9 0 005 29.7 35 35 0 006.2 46a16.3 16.3 0 007.3 28.7c4.2.8 8.5 0 12-2.4a20.4 20.4 0 0029.4 0 16.5 16.5 0 0022-4.3 16.2 16.2 0 00-2.8-22A35 35 0 0056.3 3.8C51.3 1.3 45.8 0 40 0z" fill="#E84D37"/><path d="M63.6 79c-2.8 0-5.5-.6-8-1.7l-1.2.8.5.5-4 4-1.6-1.7-2.2.7 2.4 2.3-3.9 4-4-4 1.6-1.5a25.4 25.4 0 01-6 0l1.6 1.5-4 4-3.9-4 2.4-2.3a22 22 0 01-2.1-.7l-1.7 1.6-4-3.9.5-.5-1.2-.8a20.5 20.5 0 01-8.1 1.6H16c-.1.6 0 1.1.1 1.7l20.6 57.2.1.2.1.2.2.4.1.1.4.5h.1l.4.3.2.1.5.3h2.5l.4-.3h.2l.4-.4h.1l.4-.5.1-.1.2-.4.2-.4 20.7-57.3c.1-.5.2-1 .1-1.6h-.6zM49.5 94.5l-4 3.9-3.9-3.9 4-4 3.9 4zm-13.3 5.3l4-3.9 4 4-4 3.8-4-3.9zm8 10.7l-4 3.9-4-4 4-3.8 4 3.9zm-4-25.2l4 3.9-4 3.9-4-4 4-3.8zm-1.4 9.2l-4 3.9-4-3.9 4-4 4 4zM23.7 80.4l.4-.3 4 3.8-2.3 2.2-2.1-5.7zm2.8 7.9l3-3 3.8 4-3.8 3.9-1.8-1.8-1.2-3.1zm2.8 7.9l.2-.2 3.9 4-2 2-2-5.8zm4.3 11.7l-1.5-4 2.7-2.6 4 3.9-4 4-1.2-1.3zm3.4 9.7l-1.9-5.3 3.6 3.6-1.7 1.7zm3.1 8.5l-2.3-6.5 2.3-2.3 2.4 2.3L40 126zm3.1-8.6l-1.6-1.6 3.5-3.4-1.9 5zm3.5-9.4l-1.1 1-4-3.9 4-3.9 2.6 2.6-1.5 4.2zm2.2-6.3L47 100l4-3.9-2 5.8zm3.7-10.3L51 93.2l-4-4 4-3.9 2.9 3-1.2 3.2zm2-5.4L52.3 84l3.9-4 .3.4-2 5.7z" fill="#E84D37"/></svg>